<svg xmlns="http://www.w3.org/2000/svg" viewBox="0 0 1600 900"><defs><linearGradient id="a" x1="0" y1="0" x2="1" y2="1"><stop stop-color="#ffe0ed"/><stop offset="1" stop-color="#fff9fd"/></linearGradient></defs><rect width="1600" height="900" fill="url(#a)"/><text x="800" y="140" text-anchor="middle" font-family="Segoe UI, Arial, sans-serif" font-size="70" font-weight="800" fill="#213A6B">Air-TRX</text><text x="800" y="190" text-anchor="middle" font-family="Segoe UI, Arial, sans-serif" font-size="24" font-weight="700" fill="#CB6E93" letter-spacing="7">PREMIUM AIRLINE BOOKING</text><circle cx="1350" cy="170" r="120" fill="#fff2b8" opacity="0.85"/><path d="M0 650C200 600 450 650 680 720C980 810 1240 790 1600 620V900H0V650Z" fill="#d8ecff"/><path d="M0 735C240 710 430 740 630 805C860 880 1210 855 1600 760V900H0V735Z" fill="#ffd8e7" opacity="0.95"/><path d="M770 365l150-28 70-90 52 18-66 76 196 36-25 24-180-2-60 100-20-8 20-86-125 66-12-6z" fill="#ffffff" opacity="0.95"/><ellipse cx="420" cy="250" rx="90" ry="28" fill="#fff" opacity="0.8"/><ellipse cx="1180" cy="310" rx="100" ry="30" fill="#fff" opacity="0.82"/></svg>